HIERARCHY
ROOT root
{
	OFFSET	0	13.1	24.9
	CHANNELS 6  Xposition Yposition Zposition Xrotation Yrotation Zrotation
	JOINT spine_1
	{
		OFFSET	0	9.99999	0
		CHANNELS 3  Xrotation Yrotation Zrotation
		JOINT spine_2
		{
			OFFSET	0	112	-10
			CHANNELS 3  Xrotation Yrotation Zrotation
			JOINT spine_3
			{
				OFFSET	0	206.5	19.3
				CHANNELS 3  Xrotation Yrotation Zrotation
				JOINT spine_4
				{
					OFFSET	0	110.4	14.6
					CHANNELS 3  Xrotation Yrotation Zrotation
					JOINT neck_1
					{
						OFFSET	0	71.8	-50.3
						CHANNELS 3  Xrotation Yrotation Zrotation
						JOINT neck_2
						{
							OFFSET	0	86.2	-25.8
							CHANNELS 3  Xrotation Yrotation Zrotation
							JOINT head_ee
							{
								OFFSET	0	179.8	-8.7
								CHANNELS 3  Xrotation Yrotation Zrotation
								End Site
								{
									OFFSET	1	0	0
								}
							}
						}
					}
					JOINT left_clavicle
					{
						OFFSET	-43.2	22.4	-70.8
						CHANNELS 3  Xrotation Yrotation Zrotation
						JOINT left_shoulder
						{
							OFFSET	-93.9	-5.79999	48.7
							CHANNELS 3  Xrotation Yrotation Zrotation
							JOINT left_elbow
							{
								OFFSET	-291.4	-30.8	15.2
								CHANNELS 3  Xrotation Yrotation Zrotation
								JOINT left_lowarm_twist
								{
									OFFSET	-110.7	-3.89999	13.6
									CHANNELS 3  Xrotation Yrotation Zrotation
									JOINT left_hand
									{
										OFFSET	-110.7	-3.89999	13.6
										CHANNELS 3  Xrotation Yrotation Zrotation
										JOINT left_ee
										{
											OFFSET	-80.8	-5.10001	12.1
											CHANNELS 3  Xrotation Yrotation Zrotation
											End Site
											{
												OFFSET	1	0	0
											}
										}
									}
								}
							}
						}
					}
					JOINT right_clavicle
					{
						OFFSET	43.2	22.4	-70.8
						CHANNELS 3  Xrotation Yrotation Zrotation
						JOINT right_shoulder
						{
							OFFSET	93.9	-5.79999	48.7
							CHANNELS 3  Xrotation Yrotation Zrotation
							JOINT right_elbow
							{
								OFFSET	291.4	-30.8	15.2
								CHANNELS 3  Xrotation Yrotation Zrotation
								JOINT right_lowarm_twist
								{
									OFFSET	110.7	-3.89999	13.6
									CHANNELS 3  Xrotation Yrotation Zrotation
									JOINT right_hand
									{
										OFFSET	110.7	-3.89999	13.6
										CHANNELS 3  Xrotation Yrotation Zrotation
										JOINT right_ee
										{
											OFFSET	80.8	-5.10001	12.1
											CHANNELS 3  Xrotation Yrotation Zrotation
											End Site
											{
												OFFSET	1	0	0
											}
										}
									}
								}
							}
						}
					}
				}
			}
		}
	}
	JOINT left_hip
	{
		OFFSET	-82.8	-127.5	0.300001
		CHANNELS 3  Xrotation Yrotation Zrotation
		JOINT left_knee
		{
			OFFSET	-28.2	-396.7	2.2
			CHANNELS 3  Xrotation Yrotation Zrotation
			JOINT left_ankle
			{
				OFFSET	-11.7	-411.3	35.4
				CHANNELS 3  Xrotation Yrotation Zrotation
				JOINT left_toes
				{
					OFFSET	0	-60	-88.6
					CHANNELS 3  Xrotation Yrotation Zrotation
					JOINT left_foot_ee
					{
						OFFSET	-22.5	-16.5	-42.2
						CHANNELS 3  Xrotation Yrotation Zrotation
						End Site
						{
							OFFSET	1	0	0
						}
					}
				}
			}
		}
	}
	JOINT right_hip
	{
		OFFSET	82.8	-127.5	0.300001
		CHANNELS 3  Xrotation Yrotation Zrotation
		JOINT right_knee
		{
			OFFSET	28.2	-396.7	2.2
			CHANNELS 3  Xrotation Yrotation Zrotation
			JOINT right_ankle
			{
				OFFSET	11.7	-411.3	35.4
				CHANNELS 3  Xrotation Yrotation Zrotation
				JOINT right_toes
				{
					OFFSET	0	-60	-88.6
					CHANNELS 3  Xrotation Yrotation Zrotation
					JOINT right_foot_ee
					{
						OFFSET	22.5	-16.5	-42.2
						CHANNELS 3  Xrotation Yrotation Zrotation
						End Site
						{
							OFFSET	1	0	0
						}
					}
				}
			}
		}
	}
}
MOTION
Frames: 16
Frame Time: 0.02
391.555 721.904 -1204.45 -166.84933178 -50.6704479911 -169.998077932 2.81188 0.256426 1.2521 2.81274 0.176239 1.26587 2.81643 -0.0310003 1.2777 2.8142 0.171162 1.26657 -2.03235 11.7972 -3.74418 -1.61879 24.2727 -2.45034 -0.0 0.0 -0.0 0.238653 17.2711 2.39233 -22.3232 -49.2721 60.3777 0.652724 -17.9182 0.102905 6.33316 0.179699 -0.788608 -1.04503 -0.513662 -7.22336 -0.0 0.0 -0.0 8.09658 9.64852 -15.7297 -11.9683 21.9959 -68.4633 1.1293 29.2226 -0.294407 29.5436 -0.0802371 3.7316 0.126464 -2.8998 -2.05454 0.0 0.0 0.0 5.19309 -2.63456 -2.14545 1.02158 -0.0434135 -0.150753 32.2573 20.2159 -4.25607 -40.0976 0.0 0.0 -0.0 0.0 -0.0 11.2234 22.8139 1.60834 -8.26941 -0.25112 -1.24316 21.4398 -22.3304 3.01455 -21.5618 0.0 0.0 0.0 0.0 0.0 
399.819584834 712.776 -1172.82134411 -164.104367154 -56.7758854529 -167.345192851 2.92634 0.30822 1.44073 2.92747 0.215928 1.45742 2.93266 -0.0198436 1.47319 2.9297 0.213043 1.45784 -1.55458 13.0287 -1.36591 -1.16877 24.579 0.131322 -0.0 0.0 -0.0 -3.11697 18.1595 -2.61946 -26.0835 -53.5726 64.2792 0.622377 -17.135 0.0937657 9.41741 0.235397 -1.1786 -1.46025 -1.29344 -10.3851 -0.0 0.0 -0.0 10.2705 11.4131 -20.4052 -9.62568 23.7023 -65.3198 1.22327 31.2135 -0.341712 25.568 -0.181943 3.23404 1.37118 4.02704 -7.54743 0.0 0.0 0.0 5.62365 -8.46623 -4.23048 -2.31017 0.0882014 0.343538 35.648 21.5005 -4.63943 -40.13 0.0 0.0 -0.0 0.0 -0.0 8.11864 24.8957 0.552614 -4.49602 -0.158828 -0.671548 25.8613 -25.5102 3.62521 -12.286 0.0 0.0 0.0 0.0 0.0 
403.837103739 708.904 -1171.17062025 -164.528993013 -54.123775788 -168.218500622 2.80828 0.376685 1.59252 2.80965 0.2746 1.61325 2.81708 0.00987711 1.63642 2.81345 0.268161 1.61434 -0.259222 14.6601 -0.401942 0.271512 26.5519 1.06448 -0.0 0.0 -0.0 -6.00337 16.8213 -7.46086 -16.7293 -56.8016 74.2737 0.666222 -18.2644 0.107097 10.7716 0.253203 -1.35066 -0.602319 2.53967 -2.92616 -0.0 0.0 -0.0 10.9 12.8771 -21.7718 -8.43343 23.4413 -64.2601 1.21972 31.1397 -0.339872 23.4798 -0.221466 2.97023 1.41206 2.79318 -8.33625 0.0 0.0 0.0 10.0461 -7.8484 -4.26498 -7.24632 0.229822 1.08761 36.1767 25.431 -4.79839 -39.893 0.0 0.0 -0.0 0.0 -0.0 10.1169 18.1358 0.801811 -5.94503 -0.198723 -0.890337 32.1384 -26.215 4.38314 -11.3402 0.0 0.0 0.0 0.0 0.0 
403.139159443 711.476 -1175.74684131 -164.056599481 -52.312419173 -167.990202252 2.68696 0.334977 1.59438 2.68834 0.232857 1.61246 2.69463 -0.0346864 1.62881 2.691 0.222956 1.61386 0.574218 16.369 1.42652 1.20508 27.9699 3.02077 -0.0 0.0 -0.0 -4.97088 15.7977 -6.06514 -14.6028 -55.6599 74.5699 0.47935 -13.358 0.0561331 12.5132 0.270117 -1.57246 -0.535248 6.95545 -0.585372 -0.0 0.0 -0.0 11.2146 12.6286 -22.4828 -7.47758 22.2278 -63.619 1.1723 30.1437 -0.315704 22.0989 -0.242309 2.79508 1.2561 0.978174 -8.02308 0.0 0.0 0.0 18.5852 -1.25938 -5.07372 -22.8781 0.250367 3.47862 37.178 26.154 -4.92474 -37.9599 0.0 0.0 -0.0 0.0 -0.0 10.8045 16.6951 0.929907 -4.58684 -0.161491 -0.685231 35.6551 -24.0084 4.70319 -13.0581 0.0 0.0 0.0 0.0 0.0 
409.232302004 705.757 -1190.3968394 -162.734200947 -49.9273652852 -167.78827508 2.80946 0.24336 1.46102 2.81063 0.149909 1.47354 2.8142 -0.0906717 1.47837 2.81118 0.143921 1.47414 2.32563 16.4033 1.51278 3.06653 27.5585 2.78054 -0.0 0.0 -0.0 -4.75733 17.7015 -5.25666 -14.5338 -58.812 73.3101 0.412032 -11.5363 0.0416214 12.9964 0.273614 -1.63409 -0.837827 10.7868 -0.883356 -0.0 0.0 -0.0 11.5603 13.1525 -23.2506 -6.64168 22.3292 -62.2086 0.995496 26.2492 -0.232115 20.8493 -0.257527 2.63619 0.870199 -4.04927 -7.4546 0.0 0.0 0.0 23.8276 1.13493 -4.01475 -31.4307 -0.0133872 4.76348 39.4124 26.3382 -5.15584 -35.8751 0.0 0.0 -0.0 0.0 -0.0 11.5548 13.8752 2.18135 -1.71499 -0.0668055 -0.254703 37.1504 -26.6173 4.93712 -15.9197 0.0 0.0 0.0 0.0 0.0 
409.329518344 705.757 -1190.52000263 -162.592233879 -50.307381 -167.603268945 2.80946 0.24336 1.46102 2.81063 0.149909 1.47354 2.8142 -0.0906717 1.47837 2.81118 0.143921 1.47414 2.32563 16.4033 1.51278 3.06653 27.5585 2.78054 -0.0 0.0 -0.0 -4.75733 17.7015 -5.25666 -14.5338 -58.812 73.3101 0.412032 -11.5363 0.0416214 12.9964 0.273614 -1.63409 -0.837827 10.7868 -0.883356 -0.0 0.0 -0.0 11.5603 13.1525 -23.2506 -6.64168 22.3292 -62.2086 0.995496 26.2492 -0.232115 20.8493 -0.257527 2.63619 0.870199 -4.04927 -7.4546 0.0 0.0 0.0 23.8276 1.13493 -4.01475 -31.4307 -0.0133872 4.76348 39.4124 26.3382 -5.15584 -35.8751 0.0 0.0 -0.0 0.0 -0.0 11.5548 13.8752 2.18135 -1.71499 -0.0668055 -0.254703 37.1504 -26.6173 4.93712 -15.9197 0.0 0.0 0.0 0.0 0.0 
425.593046431 703.359 -1205.04131732 -161.5664937 -45.2104888911 -167.41471528 3.1075 0.212689 1.70951 3.10913 0.103494 1.71957 3.11169 -0.167444 1.71453 3.1076 0.105394 1.71946 0.610511 15.5944 1.26801 1.18437 26.7042 2.78585 -0.0 0.0 -0.0 -3.99612 19.5428 -3.65864 -16.8324 -59.1988 68.6496 0.378342 -10.6154 0.0351491 13.7133 0.277845 -1.72555 -0.846877 10.5116 -1.06085 -0.0 0.0 -0.0 11.4608 11.7113 -23.0519 -7.59364 22.2015 -61.3754 0.961427 25.4663 -0.217256 21.4639 -0.250476 2.71438 1.1464 -4.09293 -9.31375 0.0 0.0 0.0 25.7355 1.71366 -3.09058 -30.9589 0.00614514 4.69371 40.4801 24.5954 -5.20063 -36.6245 0.0 0.0 -0.0 0.0 -0.0 13.7032 14.5859 2.63348 -0.476779 -0.019338 -0.0706113 36.5832 -27.2301 4.89864 -15.2996 0.0 0.0 0.0 0.0 0.0 
435.426385654 703.899 -1213.60065472 -162.466611525 -41.6685480703 -167.996180506 3.34177 0.437538 1.41158 3.34281 0.346838 1.43656 3.35113 0.123522 1.47266 3.34828 0.354527 1.43468 0.0871873 15.7362 1.24055 0.641015 27.0911 2.86846 -0.0 0.0 -0.0 -4.53687 18.2091 -4.7914 -15.4358 -60.4762 70.0458 0.46656 -13.0139 0.0532155 13.3957 0.276112 -1.68502 -0.843845 10.3991 -1.09047 -0.0 0.0 -0.0 11.5996 13.4923 -23.3313 -9.569 21.8384 -60.3113 0.905936 24.169 -0.193963 22.8808 -0.231025 2.89433 1.47187 -7.34441 -12.7352 0.0 0.0 0.0 24.8792 -1.91661 -1.78869 -30.8741 0.00959631 4.68115 41.3959 26.1919 -5.34162 -37.1859 0.0 0.0 -0.0 0.0 -0.0 15.1602 15.985 1.8095 -0.594071 -0.0240054 -0.0880061 36.3863 -27.159 4.87553 -15.8606 0.0 0.0 0.0 0.0 0.0 
435.321831638 703.899 -1214.08833022 -162.292980154 -42.2762878006 -167.736557552 3.34177 0.437538 1.41158 3.34281 0.346838 1.43656 3.35113 0.123522 1.47266 3.34828 0.354527 1.43468 0.0871873 15.7362 1.24055 0.641015 27.0911 2.86846 -0.0 0.0 -0.0 -4.53687 18.2091 -4.7914 -15.4358 -60.4762 70.0458 0.46656 -13.0139 0.0532155 13.3957 0.276112 -1.68502 -0.843845 10.3991 -1.09047 -0.0 0.0 -0.0 11.5996 13.4923 -23.3313 -9.569 21.8384 -60.3113 0.905936 24.169 -0.193963 22.8808 -0.231025 2.89433 1.47187 -7.34441 -12.7352 0.0 0.0 0.0 24.8792 -1.91661 -1.78869 -30.8741 0.00959631 4.68115 41.3959 26.1919 -5.34162 -37.1859 0.0 0.0 -0.0 0.0 -0.0 15.1602 15.985 1.8095 -0.594071 -0.0240054 -0.0880061 36.3863 -27.159 4.87553 -15.8606 0.0 0.0 0.0 0.0 0.0 
446.309424062 705.5 -1214.13419897 -163.664928864 -39.7263850125 -169.157765176 3.17994 0.416904 1.30673 3.18083 0.332917 1.3306 3.18829 0.122047 1.36617 3.18584 0.336257 1.32976 -1.61321 15.1249 0.825327 -1.19914 26.6555 2.71038 -0.0 0.0 -0.0 -4.11261 18.1633 -4.14759 -15.8132 -60.7001 68.3222 0.457423 -12.7675 0.0511769 13.0423 0.273919 -1.63993 -0.805837 10.3543 -0.867122 -0.0 0.0 -0.0 11.6355 13.3278 -23.4166 -10.4991 21.2854 -59.903 0.932979 24.8046 -0.205173 23.7283 -0.217267 3.0017 1.61294 -9.86739 -14.6 0.0 0.0 0.0 24.4248 -5.31344 -0.641437 -32.6059 -0.0645345 4.93655 42.5259 26.2493 -5.44872 -35.8439 0.0 0.0 -0.0 0.0 -0.0 17.1799 15.6534 1.95061 -6.46627 -0.211718 -0.969272 35.848 -27.0744 4.81573 -16.305 0.0 0.0 0.0 0.0 0.0 
446.201107414 705.5 -1214.7278212 -163.517413297 -40.3228443742 -168.928392398 3.17994 0.416904 1.30673 3.18083 0.332917 1.3306 3.18829 0.122047 1.36617 3.18584 0.336257 1.32976 -1.61321 15.1249 0.825327 -1.19914 26.6555 2.71038 -0.0 0.0 -0.0 -4.11261 18.1633 -4.14759 -15.8132 -60.7001 68.3222 0.457423 -12.7675 0.0511769 13.0423 0.273919 -1.63993 -0.805837 10.3543 -0.867122 -0.0 0.0 -0.0 11.6355 13.3278 -23.4166 -10.4991 21.2854 -59.903 0.932979 24.8046 -0.205173 23.7283 -0.217267 3.0017 1.61294 -9.86739 -14.6 0.0 0.0 0.0 24.4248 -5.31344 -0.641437 -32.6059 -0.0645345 4.93655 42.5259 26.2493 -5.44872 -35.8439 0.0 0.0 -0.0 0.0 -0.0 17.1799 15.6534 1.95061 -6.46627 -0.211718 -0.969272 35.848 -27.0744 4.81573 -16.305 0.0 0.0 0.0 0.0 0.0 
446.289554663 705.5 -1214.24587617 -163.637534428 -39.8385407473 -169.114952998 3.17994 0.416904 1.30673 3.18083 0.332917 1.3306 3.18829 0.122047 1.36617 3.18584 0.336257 1.32976 -1.61321 15.1249 0.825327 -1.19914 26.6555 2.71038 -0.0 0.0 -0.0 -4.11261 18.1633 -4.14759 -15.8132 -60.7001 68.3222 0.457423 -12.7675 0.0511769 13.0423 0.273919 -1.63993 -0.805837 10.3543 -0.867122 -0.0 0.0 -0.0 11.6355 13.3278 -23.4166 -10.4991 21.2854 -59.903 0.932979 24.8046 -0.205173 23.7283 -0.217267 3.0017 1.61294 -9.86739 -14.6 0.0 0.0 0.0 24.4248 -5.31344 -0.641437 -32.6059 -0.0645345 4.93655 42.5259 26.2493 -5.44872 -35.8439 0.0 0.0 -0.0 0.0 -0.0 17.1799 15.6534 1.95061 -6.46627 -0.211718 -0.969272 35.848 -27.0744 4.81573 -16.305 0.0 0.0 0.0 0.0 0.0 
446.273477656 705.5 -1214.33528538 -163.615483994 -39.9283512001 -169.080565185 3.17994 0.416904 1.30673 3.18083 0.332917 1.3306 3.18829 0.122047 1.36617 3.18584 0.336257 1.32976 -1.61321 15.1249 0.825327 -1.19914 26.6555 2.71038 -0.0 0.0 -0.0 -4.11261 18.1633 -4.14759 -15.8132 -60.7001 68.3222 0.457423 -12.7675 0.0511769 13.0423 0.273919 -1.63993 -0.805837 10.3543 -0.867122 -0.0 0.0 -0.0 11.6355 13.3278 -23.4166 -10.4991 21.2854 -59.903 0.932979 24.8046 -0.205173 23.7283 -0.217267 3.0017 1.61294 -9.86739 -14.6 0.0 0.0 0.0 24.4248 -5.31344 -0.641437 -32.6059 -0.0645345 4.93655 42.5259 26.2493 -5.44872 -35.8439 0.0 0.0 -0.0 0.0 -0.0 17.1799 15.6534 1.95061 -6.46627 -0.211718 -0.969272 35.848 -27.0744 4.81573 -16.305 0.0 0.0 0.0 0.0 0.0 
456.192579808 705.685 -1214.20945144 -163.373610752 -39.0787840974 -168.733850012 3.05865 0.251448 1.21354 3.05945 0.173723 1.22708 3.06293 -0.0218716 1.23912 3.06083 0.174084 1.22703 -1.31115 15.0362 0.400785 -0.864973 26.7755 2.1851 -0.0 0.0 -0.0 -4.27206 18.6343 -4.28426 -14.7454 -60.9393 67.8798 0.565057 -15.6378 0.0775935 12.692 0.271472 -1.59526 -0.787379 9.68357 -1.04003 -0.0 0.0 -0.0 11.5279 12.5887 -23.189 -12.0519 21.1226 -59.2942 0.937726 24.9155 -0.207168 24.2916 -0.207244 3.07296 1.82451 -11.443 -16.5634 0.0 0.0 0.0 24.6055 -7.06521 -0.281951 -33.735 -0.117018 5.10184 42.4343 25.7452 -5.42183 -34.5266 0.0 0.0 -0.0 0.0 -0.0 22.5165 15.9163 2.10903 -14.1206 -0.319336 -2.13798 37.1329 -26.3996 4.92811 -16.4969 0.0 0.0 0.0 0.0 0.0 
473.688645302 704.128 -1211.02089631 -165.195880048 -37.2106577917 -170.50893212 2.72845 -0.090838 1.13587 2.72915 -0.162928 1.12779 2.72573 -0.345121 1.08599 2.72413 -0.16929 1.12686 -1.12418 14.868 -0.327972 -0.642715 27.0165 1.34722 -0.0 0.0 -0.0 -4.10581 21.4598 -3.38364 -12.1105 -59.7895 68.7026 0.502148 -13.969 0.0615184 12.5365 0.270298 -1.57543 -1.12127 10.6878 -2.73466 -0.0 0.0 -0.0 11.2547 12.1313 -22.5825 -13.518 20.7339 -59.3238 0.930295 24.7418 -0.204048 24.5971 -0.201514 3.11157 1.76842 -12.8969 -16.6886 0.0 0.0 0.0 22.9354 -7.12754 1.34334 -36.1818 -0.241892 5.45636 42.3228 26.4887 -5.43899 -33.1951 0.0 0.0 -0.0 0.0 -0.0 25.8496 18.6127 1.6451 -26.0107 -0.176078 -3.95356 38.1566 -28.5931 5.1116 -15.155 0.0 0.0 0.0 0.0 0.0 
473.524593247 704.128 -1212.82246391 -164.944306274 -38.4261623366 -170.098666322 2.72845 -0.090838 1.13587 2.72915 -0.162928 1.12779 2.72573 -0.345121 1.08599 2.72413 -0.16929 1.12686 -1.12418 14.868 -0.327972 -0.642715 27.0165 1.34722 -0.0 0.0 -0.0 -4.10581 21.4598 -3.38364 -12.1105 -59.7895 68.7026 0.502148 -13.969 0.0615184 12.5365 0.270298 -1.57543 -1.12127 10.6878 -2.73466 -0.0 0.0 -0.0 11.2547 12.1313 -22.5825 -13.518 20.7339 -59.3238 0.930295 24.7418 -0.204048 24.5971 -0.201514 3.11157 1.76842 -12.8969 -16.6886 0.0 0.0 0.0 22.9354 -7.12754 1.34334 -36.1818 -0.241892 5.45636 42.3228 26.4887 -5.43899 -33.1951 0.0 0.0 -0.0 0.0 -0.0 25.8496 18.6127 1.6451 -26.0107 -0.176078 -3.95356 38.1566 -28.5931 5.1116 -15.155 0.0 0.0 0.0 0.0 0.0 
